<?xml version="1.0" standalone="no"?><!DOCTYPE svg PUBLIC "-//W3C//DTD SVG 1.1//EN" "http://www.w3.org/Graphics/SVG/1.1/DTD/svg11.dtd"><svg t="1690508232384" class="icon" viewBox="0 0 1024 1024" version="1.1" xmlns="http://www.w3.org/2000/svg" p-id="1664" xmlns:xlink="http://www.w3.org/1999/xlink" width="64" height="64"><path d="M25.6 890.6c-2.2 0-4.4-0.2-6.5-0.8C7.8 886.8 0 876.6 0 864.9 0 778.6 32.8 646.4 125 534c45.5-55.4 101.8-101 165.4-134.2 84.6-44.4 183.8-69 294.8-73.1V159.2c-0.1-10 5.6-19.1 14.7-23.3 3.4-1.7 7.1-2.5 10.9-2.5 6 0 11.7 2.1 16.3 5.9l387.4 320.6c6 4.8 9.5 12.1 9.4 19.7 0 7.6-3.4 14.8-9.2 19.7L627 821.1c-4.5 3.8-10.3 5.8-16.2 5.8-3.8 0-7.6-0.8-11-2.4-9-4.3-14.7-13.4-14.7-23.3v-167c-90 0.4-186.2 4.9-279.9 35.5-50.7 16.1-98.4 40.7-140.9 72.7-22.7 17.4-43.6 37-62.4 58.6-20.5 23.7-38.6 49.3-53.9 76.6-4.7 7.9-13.2 12.9-22.4 13z m610.8-676.9v137.9c0.1 14.1-11.2 25.6-25.3 25.8-80.1-0.3-159.7 13.1-235.2 39.7-59.3 21.5-113.9 54-161.1 95.8-39.8 35.8-73.5 78-99.5 124.8-22.3 40-39.2 82.6-50.4 126.9 37.2-42.5 81.7-78.1 131.3-105.1 45.7-24.4 94.5-42.6 145.1-54 47.1-10.6 95.1-17.3 143.3-19.9 45.7-2.8 88.3-2.8 125.9-2.8 6.8 0 13.4 2.7 18.2 7.6 4.8 4.9 7.5 11.4 7.5 18.3v137.9l321.8-267-321.6-265.9z" p-id="1665" fill="#707070"></path></svg>